<svg width="17" height="17" viewBox="0 0 17 17" fill="none" xmlns="http://www.w3.org/2000/svg">
<path d="M16.9536 4.99806C16.9137 4.09478 16.7677 3.47379 16.5584 2.93569C16.3426 2.36451 16.0105 1.85313 15.5754 1.42802C15.1502 0.996291 14.6355 0.660821 14.0709 0.448331C13.5297 0.239084 12.912 0.0930131 12.0087 0.0531874C11.0987 0.00998885 10.8098 0 8.50169 0C6.19361 0 5.90471 0.00998885 4.99806 0.0498146C4.09478 0.0896403 3.47379 0.235841 2.93582 0.444958C2.36451 0.660821 1.85313 0.992918 1.42802 1.42802C0.996291 1.85313 0.660951 2.36788 0.448331 2.93244C0.239084 3.47379 0.0930131 4.09141 0.0531874 4.99469C0.00998885 5.90471 0 6.19361 0 8.50169C0 10.8098 0.00998885 11.0987 0.0498146 12.0053C0.0896403 12.9086 0.235841 13.5296 0.445088 14.0677C0.660951 14.6389 0.996291 15.1502 1.42802 15.5754C1.85313 16.0071 2.36788 16.3426 2.93244 16.555C3.47379 16.7643 4.09141 16.9104 4.99482 16.9502C5.90134 16.9901 6.19037 17 8.49844 17C10.8065 17 11.0954 16.9901 12.0021 16.9502C12.9053 16.9104 13.5263 16.7643 14.0643 16.555C15.2068 16.1133 16.1101 15.21 16.5518 14.0677C16.7609 13.5263 16.9071 12.9086 16.9469 12.0053C16.9868 11.0987 16.9968 10.8098 16.9968 8.50169C16.9968 6.19361 16.9934 5.90471 16.9536 4.99806ZM15.4227 11.9389C15.3861 12.7691 15.2466 13.2175 15.1304 13.5164C14.8447 14.257 14.257 14.8447 13.5164 15.1304C13.2175 15.2466 12.7659 15.3861 11.9389 15.4225C11.0422 15.4625 10.7733 15.4724 8.50506 15.4724C6.23681 15.4724 5.96452 15.4625 5.0711 15.4225C4.24085 15.3861 3.79252 15.2466 3.49364 15.1304C3.12509 14.9942 2.78962 14.7783 2.51732 14.496C2.23504 14.2204 2.01918 13.8883 1.88296 13.5197C1.76673 13.2208 1.62728 12.7691 1.59082 11.9423C1.55087 11.0456 1.54101 10.7766 1.54101 8.5083C1.54101 6.24005 1.55087 5.96776 1.59082 5.07447C1.62728 4.24423 1.76673 3.7959 1.88296 3.49701C2.01918 3.12833 2.23504 2.79299 2.52069 2.52057C2.79623 2.23828 3.12833 2.02242 3.49701 1.88634C3.7959 1.7701 4.2476 1.63065 5.07447 1.59407C5.97113 1.55424 6.24018 1.54425 8.5083 1.54425C10.7799 1.54425 11.0488 1.55424 11.9423 1.59407C12.7725 1.63065 13.2208 1.7701 13.5197 1.88634C13.8883 2.02242 14.2237 2.23828 14.496 2.52057C14.7783 2.79623 14.9942 3.12833 15.1304 3.49701C15.2466 3.7959 15.3861 4.24747 15.4227 5.07447C15.4625 5.97113 15.4725 6.24005 15.4725 8.5083C15.4725 10.7766 15.4625 11.0422 15.4227 11.9389Z" fill="#32353C"/>
<path d="M8.50172 4.13452C6.09077 4.13452 4.13464 6.09052 4.13464 8.5016C4.13464 10.9127 6.09077 12.8687 8.50172 12.8687C10.9128 12.8687 12.8688 10.9127 12.8688 8.5016C12.8688 6.09052 10.9128 4.13452 8.50172 4.13452ZM8.50172 11.3344C6.93762 11.3344 5.66891 10.0658 5.66891 8.5016C5.66891 6.93737 6.93762 5.66878 8.50172 5.66878C10.066 5.66878 11.3345 6.93737 11.3345 8.5016C11.3345 10.0658 10.066 11.3344 8.50172 11.3344Z" fill="#32353C"/>
<path d="M14.0611 3.96189C14.0611 4.5249 13.6046 4.98141 13.0415 4.98141C12.4785 4.98141 12.022 4.5249 12.022 3.96189C12.022 3.39876 12.4785 2.94238 13.0415 2.94238C13.6046 2.94238 14.0611 3.39876 14.0611 3.96189Z" fill="#32353C"/>
</svg>
