<svg width="17" height="14" viewBox="0 0 17 14" fill="none" xmlns="http://www.w3.org/2000/svg">
<path d="M16.2308 1.5612C15.6272 1.82596 14.984 2.00146 14.3135 2.08667C15.0033 1.67481 15.5298 1.02761 15.7773 0.247519C15.1342 0.630971 14.4241 0.901822 13.6673 1.05297C13.0566 0.402726 12.1863 0 11.2368 0C9.39457 0 7.91149 1.49526 7.91149 3.32832C7.91149 3.59207 7.9338 3.84568 7.98858 4.08711C5.22225 3.95219 2.77445 2.62634 1.13007 0.606625C0.842986 1.10471 0.674591 1.67481 0.674591 2.28854C0.674591 3.44092 1.26803 4.46245 2.15261 5.05386C1.618 5.04371 1.09355 4.8885 0.649231 4.64403C0.649231 4.65417 0.649231 4.66736 0.649231 4.68055C0.649231 6.29754 1.80263 7.64064 3.31513 7.95003C3.04428 8.02409 2.74909 8.05959 2.44273 8.05959C2.2297 8.05959 2.01464 8.04742 1.81277 8.00278C2.2439 9.32052 3.4673 10.2893 4.92198 10.3207C3.78989 11.2063 2.35245 11.7399 0.796322 11.7399C0.523442 11.7399 0.261721 11.7277 0 11.6943C1.47396 12.6448 3.22079 13.1875 5.10458 13.1875C11.2276 13.1875 14.5752 8.11539 14.5752 3.71888C14.5752 3.57178 14.5702 3.42976 14.5631 3.28876C15.2234 2.8201 15.7783 2.23477 16.2308 1.5612Z" fill="#32353C"/>
</svg>
